# xmcd CD database file
#
# Track frame offsets:
#	150
#	17810
#	39445
#
# Disc length: 773 seconds
#
# Revision: 0
# Processed by: cddbd v1.5.1PL0 Copyright (c) Steve Scherf et al.
# Submitted via: CDex 1.51
#
DISCID=1a030303
DTITLE=In the Soup - 檸檬−レモン−
DYEAR=2001
DGENRE=Rock
TTITLE0=檸檬−レモン−
TTITLE1=遙かな光
TTITLE2=雨のち晴れのち愛のうた
EXTD=YEAR: 2001
EXTT0=
EXTT1=
EXTT2=
PLAYORDER=
